<svg width="16" height="16" viewBox="0 0 16 16" fill="none" xmlns="http://www.w3.org/2000/svg">
<g clip-path="url(#clip0_96_8876)">
<path d="M2.38069 11.6292C2.07734 11.8689 2.0257 12.3091 2.26535 12.6124C2.50501 12.9158 2.9452 12.9674 3.24856 12.7278L2.38069 11.6292ZM13.7109 4.46239C14.0143 4.22273 14.0659 3.78254 13.8263 3.47918C13.5866 3.17583 13.1464 3.12419 12.8431 3.36384L13.7109 4.46239ZM8.15691 2.01439C7.77275 1.97106 7.4262 2.24736 7.38287 2.63152C7.33954 3.01569 7.61584 3.36224 8 3.40557L8.15691 2.01439ZM10.1339 2.94181L10.0554 3.6374L10.1339 2.94181ZM13.4945 7.19566L14.1894 7.28032L13.4945 7.19566ZM12.5495 9.16429C12.5027 9.54806 12.7759 9.89706 13.1597 9.94381C13.5434 9.99057 13.8924 9.71737 13.9392 9.33361L12.5495 9.16429ZM13.1021 3.7185L13.5921 3.2186L13.5921 3.2186L13.1021 3.7185ZM13.4258 4.12828L14.0256 3.76728L14.0256 3.76728L13.4258 4.12828ZM3.24856 12.7278L13.7109 4.46239L12.8431 3.36384L2.38069 11.6292L3.24856 12.7278ZM8 3.40557L10.0554 3.6374L10.2124 2.24622L8.15691 2.01439L8 3.40557ZM12.7996 7.11101L12.5495 9.16429L13.9392 9.33361L14.1894 7.28032L12.7996 7.11101ZM10.0554 3.6374C10.8914 3.73169 11.4594 3.79682 11.8851 3.89449C12.297 3.989 12.4874 4.09617 12.6121 4.2184L13.5921 3.2186C13.2074 2.84146 12.7333 2.65274 12.1982 2.52995C11.6769 2.41034 11.0156 2.33682 10.2124 2.24622L10.0554 3.6374ZM14.1894 7.28032C14.2871 6.47793 14.3686 5.81755 14.3729 5.28273C14.3773 4.73374 14.3034 4.22887 14.0256 3.76728L12.8261 4.48928C12.9162 4.63888 12.9764 4.84898 12.973 5.27152C12.9695 5.70823 12.9014 6.27594 12.7996 7.11101L14.1894 7.28032ZM12.6121 4.2184C12.6946 4.29928 12.7665 4.39029 12.8261 4.48928L14.0256 3.76728C13.9049 3.56677 13.7592 3.38242 13.5921 3.2186L12.6121 4.2184Z" fill="white"/>
</g>
<defs>
<clipPath id="clip0_96_8876">
<rect width="16" height="16" fill="white"/>
</clipPath>
</defs>
</svg>
